<?xml version="1.0" encoding="iso-8859-1"?>
<!-- Generator: Adobe Illustrator 19.0.0, SVG Export Plug-In . SVG Version: 6.00 Build 0)  -->
<svg version="1.1" id="Capa_1" xmlns="http://www.w3.org/2000/svg" xmlns:xlink="http://www.w3.org/1999/xlink" x="0px" y="0px"
	 viewBox="0 0 512 512" style="enable-background:new 0 0 512 512;" xml:space="preserve">
<path style="fill:#DEDED9;" d="M256,464c-4.418,0-8-3.582-8-8v-32c0-4.418,3.582-8,8-8s8,3.582,8,8v32
	C264,460.418,260.418,464,256,464z"/>
<path style="fill:#FDC572;" d="M304,384h-96c-17.645,0-32,14.355-32,32v8c0,4.418,3.582,8,8,8h144c4.418,0,8-3.582,8-8v-8
	C336,398.355,321.645,384,304,384z"/>
<path style="fill:#E8A848;" d="M176,424c0,4.418,3.582,8,8,8h144c4.418,0,8-3.582,8-8v-8H176V424z"/>
<path style="fill:#FCB74F;" d="M256,104c-4.418,0-8-3.582-8-8V56c0-4.418,3.582-8,8-8c8.822,0,16-7.178,16-16s-7.178-16-16-16
	s-16,7.178-16,16c0,4.418-3.582,8-8,8s-8-3.582-8-8c0-17.645,14.355-32,32-32s32,14.355,32,32c0,14.884-10.214,27.426-24,30.988V96
	C264,100.418,260.418,104,256,104z"/>
<path style="fill:#BDBCB4;" d="M256,88c-97.047,0-176,78.953-176,176v192c0,4.418,3.582,8,8,8s8-3.582,8-8v-88h40v88
	c0,4.418,3.582,8,8,8s8-3.582,8-8v-88h56v88c0,4.418,3.582,8,8,8s8-3.582,8-8v-88h64v88c0,4.418,3.582,8,8,8s8-3.582,8-8v-88h56v88
	c0,4.418,3.582,8,8,8s8-3.582,8-8v-88h40v88c0,4.418,3.582,8,8,8s8-3.582,8-8V264C432,166.953,353.047,88,256,88z M370.121,152
	h-21.399c-2.171-3.864-4.458-7.615-6.869-11.231c-5.269-7.903-10.962-14.969-17.002-21.179
	C341.803,127.704,357.098,138.733,370.121,152z M328.539,149.644c0.519,0.778,1.029,1.565,1.535,2.356h-36.097
	c-0.614-2.949-1.245-5.85-1.91-8.647c-3.449-14.487-7.427-26.144-11.91-34.966C298.195,115.041,314.86,129.124,328.539,149.644z
	 M256,104c2.659,0,12.134,7.911,20.502,43.059c0.385,1.616,0.757,3.27,1.124,4.941h-43.251c0.367-1.671,0.739-3.325,1.124-4.941
	C243.866,111.911,253.341,104,256,104z M287.955,256h-63.909c0.358-32.035,2.874-62.344,7.239-88h49.432
	C285.081,193.656,287.596,223.965,287.955,256z M231.844,108.387c-4.483,8.822-8.462,20.479-11.91,34.966
	c-0.666,2.797-1.297,5.698-1.91,8.647h-36.098c0.507-0.791,1.017-1.579,1.535-2.356C197.14,129.124,213.805,115.041,231.844,108.387
	z M187.15,119.589c-6.04,6.21-11.734,13.277-17.002,21.179c-2.411,3.617-4.698,7.368-6.869,11.231H141.88
	C154.902,138.733,170.197,127.704,187.15,119.589z M136,352H96v-80h40V352z M136.125,256H96.2c1.629-32.917,13.269-63.234,31.908-88
	h27.169C143.709,194.108,137.081,224.311,136.125,256z M208,352h-56v-80h56V352z M208.045,256h-55.917
	c1.028-32.154,8.253-62.53,20.799-88h42.13C210.823,193.96,208.395,224.211,208.045,256z M288,352h-64v-80h64V352z M303.955,256
	c-0.349-31.789-2.778-62.04-7.012-88h42.13c12.546,25.47,19.77,55.846,20.799,88H303.955z M360,352h-56v-80h56V352z M375.875,256
	c-0.956-31.689-7.584-61.892-19.152-88h27.169c18.639,24.766,30.279,55.083,31.908,88H375.875z M416,352h-40v-80h40V352z"/>
<path style="fill:#AED45B;" d="M456,448H56c-4.418,0-8,3.582-8,8v48c0,4.418,3.582,8,8,8h400c4.418,0,8-3.582,8-8v-48
	C464,451.582,460.418,448,456,448z"/>
<path style="fill:#9AC932;" d="M456,496H56c-4.418,0-8-3.582-8-8v16c0,4.418,3.582,8,8,8h400c4.418,0,8-3.582,8-8v-16
	C464,492.418,460.418,496,456,496z"/>
<g>
</g>
<g>
</g>
<g>
</g>
<g>
</g>
<g>
</g>
<g>
</g>
<g>
</g>
<g>
</g>
<g>
</g>
<g>
</g>
<g>
</g>
<g>
</g>
<g>
</g>
<g>
</g>
<g>
</g>
</svg>
