<svg id="Capa_1" enable-background="new 0 0 512 512" height="512" viewBox="0 0 512 512" width="512" xmlns="http://www.w3.org/2000/svg"><g><g><path d="m261.348 168.457c0-72.171-58.503-130.674-130.674-130.674-72.161.001-130.674 58.503-130.674 130.674 0 62.808 44.318 115.261 103.379 127.814v64.903c0 2.818-2.281 5.089-5.089 5.089h-10.304c-15.082 0-27.305 12.223-27.305 27.305 0 7.536 3.056 14.37 8.001 19.305 4.935 4.945 11.758 8.001 19.305 8.001h10.303c2.808 0 5.089 2.271 5.089 5.09v20.946c0 15.082 12.223 27.305 27.295 27.305 7.536 0 14.37-3.056 19.305-8.001 4.945-4.935 8.001-11.758 8.001-19.305v-20.946c0-2.818 2.281-5.09 5.089-5.09h10.303c15.082 0 27.305-12.223 27.305-27.305 0-7.536-3.056-14.37-8.001-19.305-4.935-4.945-11.769-8.001-19.305-8.001h-10.303c-2.808 0-5.089-2.271-5.089-5.089v-64.903c59.06-12.552 103.369-65.005 103.369-127.813zm-130.674 79.078c-43.668 0-79.067-35.399-79.067-79.077 0-43.668 35.399-79.067 79.067-79.067 43.678 0 79.077 35.399 79.077 79.067 0 43.678-35.399 79.077-79.077 79.077z" fill="#fe7ab6"/></g><path d="m141.906 421.464c-2.808 0-5.089 2.756-5.089 5.575v19.872c0 7.546-3.056 14.37-8.001 19.305-2.478 2.478-5.43 4.491-8.713 5.874 3.252 1.373 6.824 2.127 10.571 2.127 7.536 0 14.37-3.056 19.305-8.001 4.945-4.935 8.001-11.758 8.001-19.305v-20.946c0-1.961 1.105-3.655 2.715-4.501-2.891-.217-18.789 0-18.789 0z" fill="#fe5ca7"/><path d="m192.676 374.265c-4.935-4.945-11.769-8.001-19.305-8.001h-10.303c-2.811 0-5.089-2.279-5.089-5.09v-65.236s-3.86.473-8.685.779c-7.021.445-12.478 6.297-12.478 13.332v68.674c0 2.792 2.249 5.089 5.042 5.089 4.265.001 8.524-.177 12.792-.177 4.19 0 8.392-.309 12.572.137 11.439 1.219 18.022 9.799 15.717 21.195-1.237 6.118-4.737 12.432-10.61 15.142-.671.31-1.363.568-2.065.764h2.557c14.931 0 27.518-11.758 27.849-26.685.173-7.779-2.914-14.853-7.994-19.923z" fill="#fe5ca7"/><path d="m408.621 215.728v-75.258c9.993 4.346 22.051 2.447 30.217-5.719 5.337-5.337 8.001-12.316 8.001-19.305s-2.663-13.978-8.001-19.305l-47.157-47.157c-5.719-5.729-15-5.729-20.719 0l-47.157 47.157c-10.664 10.654-10.664 27.945 0 38.61 5.327 5.327 12.306 7.99 19.294 7.99 3.727 0 7.443-.764 10.922-2.271v75.258c-59.06 12.553-103.368 65.007-103.368 127.814 0 72.171 58.503 130.674 130.674 130.674 72.161 0 130.674-58.503 130.674-130.674-.001-62.807-44.319-115.26-103.38-127.814zm-27.295 206.882c-43.678 0-79.077-35.399-79.077-79.067 0-43.678 35.399-79.077 79.077-79.077 43.668 0 79.067 35.399 79.067 79.077 0 43.668-35.399 79.067-79.067 79.067z" fill="#62dbfb"/><path d="m395.108 79.212c-8.94-8.95-19.153-17.346-28.093-26.286l3.947-3.941c5.719-5.729 15-5.729 20.719 0l47.157 47.157c5.337 5.327 8.001 12.316 8.001 19.305s-2.663 13.968-8.001 19.305c-8.166 8.166-20.224 10.065-30.217 5.719v74.938c-2.979-.398-6.006-.702-9.079-.909-6.493-.437-11.568-5.765-11.568-12.272v-64.724c0-6.391 4.685-11.881 11.021-12.719 9.362-1.238 17.698-10.984 16.358-21.987-.692-5.75-5.876-8.998-9.922-13.004-3.448-3.428-6.875-7.145-10.323-10.582z" fill="#01d0fb"/><path d="m424.932 220.333c40.788 22.102 68.486 65.285 68.486 114.941 0 72.171-58.513 130.674-130.674 130.674-15.299 0-29.99-2.632-43.637-7.464 18.5 10.034 39.694 15.733 62.219 15.733 72.161 0 130.674-58.503 130.674-130.674 0-56.872-36.349-105.258-87.068-123.21z" fill="#01d0fb"/><g><path d="m130.674 37.784c-21.493 0-41.779 5.193-59.659 14.391 12.316-3.851 25.427-5.926 39.012-5.926 72.171 0 130.674 58.503 130.674 130.674 0 50.657-28.823 94.583-70.963 116.262 53.083-16.6 91.61-66.163 91.61-124.727 0-72.172-58.503-130.674-130.674-130.674z" fill="#fe5ca7"/></g></g></svg>