<svg id="Capa_1" enable-background="new 0 0 497 497" height="512" viewBox="0 0 497 497" width="512" xmlns="http://www.w3.org/2000/svg"><g><path d="m55.373 9.129c-.828-1.917.199-4.122 2.193-4.745 17.724-5.54 37.132 3.092 44.662 20.518 8.052 18.633-.526 40.266-19.16 48.318z" fill="#b46e5a"/><path d="m61.993 91.214c-14.756 13.939-38.018 13.277-51.957-1.479-13.035-13.799-13.301-35.038-1.212-49.134 1.36-1.585 3.791-1.659 5.225-.141z" fill="#c38778"/><path d="m426.94 386.668-84.032-39.788-33.662-.708-3.905-23.467-22.722-24.053-26.385-14.846-11.327-25.075-70.375-74.498 55.358-46.326c15.573 0 27.752-13.431 26.232-28.93l-1.006-10.264-4.046-15.001c-6.252-12.324-19.036-20.637-33.609-20.637h-96.325c-14 0-26.957 3.724-38.074 10.15-.235.215-37.961 30.314-26.981 77.915l84.156 343.143h248.195c4.927 0 9.545-2.417 12.348-6.468 20.54-29.689 29.693-65.588 26.16-101.147z" fill="#c38778"/><path d="m255.115 98.713h-24.978c-4.142 0-7.5-3.357-7.5-7.5s3.358-7.5 7.5-7.5h20.931c2.064 4.068 3.417 8.572 3.887 13.359zm-172.053-25.488c-27.814 16.078-44.089 49.098-36.216 83.229l76.589 332.015c.785 3.403 3.815 5.814 7.308 5.814h9.494l-79.156-343.143c-10.98-47.601 21.746-77.7 21.981-77.915zm91.47 111.008 55.353-46.322s.005-.004.005-.004 0 0-.001 0h.001c-.4 0-.795-.015-1.189-.034-5.778-.329-11.329-3.03-14.704-7.215-3.625-4.494-4.68-10.39-3.134-17.521.877-4.048-1.693-8.041-5.742-8.918-4.052-.876-8.042 1.694-8.918 5.742-3.18 14.676 1.572 24.476 6.119 30.113.216.268.445.524.669.784l-38.084 31.871c-3.177 2.658-3.597 7.388-.938 10.565 2.657 3.177 7.387 3.597 10.563.939zm70.375 74.498-20.063 10.101-17.916-18.88c-2.567-3.251-7.283-3.805-10.534-1.238s-3.805 7.283-1.238 10.534l-.443 41.703h-62.555c-2.567-3.251-7.283-3.805-10.534-1.238s-3.805 7.283-1.238 10.534l25.947 32.858c10.781 13.653 26.95 21.484 44.36 21.484 14.534 0 28.346-5.52 38.893-15.542l53.033-50.395zm71.351 75.53-10.917-11.556-25.775 48.963s-26.945 0-31.087 0-7.5 3.358-7.5 7.5 3.358 7.5 7.5 7.5 40.191 0 40.191 0l54.238-39.788z" fill="#b46e5a"/><path d="m195.156 259.247 26.455 28.005 56.215-28.3c8.97-4.516 17.216 7.204 9.936 14.121l-68.509 65.099c-17.698 16.817-46.019 14.796-61.149-4.365l-25.946-32.858z" fill="#c38778"/><path d="m411.227 198.825-58.215-21.417c-13.148-4.837-31.413-1.091-39.437 8.956-5.766 7.219-5.772 17.466-.016 24.693 3.951 4.959 49.421 51.99 49.421 51.99l-15.745 12.368-42.037-14.107 32.952 46.995-32.532 78.365h121.323c-.831-8.364-2.364-16.709-4.615-24.951l-8.903-32.587 25.003-73.216c7.942-23.258-4.133-48.603-27.199-57.089z" fill="#ffe07d"/><path d="m344.161 302.554c2.203 2.332 2.679 5.806 1.185 8.644l-39.728 75.47h-16.948l41.173-78.216-37.674-39.881c-4.189-4.435.341-11.521 6.125-9.58l6.904 2.317zm25.021-46.267-25.436-31.931c2.637-2.279 4.812-5.054 6.353-8.239 1.805-3.729.246-8.214-3.482-10.02-3.729-1.806-8.214-.246-10.019 3.483-2.484 5.131-7.795 6.246-9.963 6.488-4.32.48-10.719-2.052-13.076-5.012l.001.001s-.001 0-.001-.001l15.761 19.787h.002l24.913 31.274-7 13.297 8.353 2.803c3.488 1.17 7.309-.362 9.023-3.617l5.342-10.148c1.386-2.633 1.083-5.837-.771-8.165z" fill="#ffc250"/><path d="m486.667 169.981c1.669-1.255 4.053-.774 5.127 1.017 9.547 15.928 5.713 36.82-9.457 48.231-16.222 12.202-39.73 9.357-51.932-6.865z" fill="#ffc250"/><path d="m435.195 133.25c.717-1.962-.436-4.104-2.462-4.611-18.013-4.513-36.893 5.219-43.41 23.049-6.968 19.065 2.838 40.169 21.903 47.138z" fill="#ffe07d"/><g fill="#8c5e5e"><path d="m372.2 235.47c-1.178 0-2.373-.278-3.487-.865-3.665-1.93-5.072-6.465-3.143-10.13l5.692-10.813c1.929-3.665 6.465-5.074 10.13-3.144s5.072 6.465 3.143 10.13l-5.692 10.813c-1.343 2.551-3.948 4.009-6.643 4.009z"/><path d="m158.041 121.895c-.434 0-.874-.037-1.316-.116-4.079-.722-6.8-4.613-6.078-8.692l3.598-20.32c.723-4.077 4.613-6.803 8.693-6.077 4.079.722 6.8 4.613 6.078 8.692l-3.598 20.32c-.645 3.635-3.809 6.193-7.377 6.193z"/></g></g></svg>