<svg id="Layer_3" enable-background="new 0 0 64 64" height="512" viewBox="0 0 64 64" width="512" xmlns="http://www.w3.org/2000/svg"><g><path d="m26 6c-2.451 0-4.693-1.385-5.789-3.578l-.211-.422h-2c-1.657 0-3 1.343-3 3 0 3.314 2.686 6 6 6h2" fill="#8892a0"/><path d="m38 6c2.451 0 4.693-1.385 5.789-3.578l.211-.422h2c1.657 0 3 1.343 3 3 0 3.314-2.686 6-6 6h-2" fill="#8892a0"/><g><path d="m25 9h-2.838c-2.322 0-4.376-1.48-5.11-3.684l1.896-.633c.463 1.386 1.754 2.317 3.214 2.317h2.838z" fill="#a8b0bc"/></g><g><path d="m41.838 9h-2.838v-2h2.838c1.46 0 2.751-.931 3.214-2.316l1.896.633c-.734 2.203-2.788 3.683-5.11 3.683z" fill="#a8b0bc"/></g><path d="m59 56-.154-.462c-1.885-5.655-2.846-11.577-2.846-17.538 0-5.961.961-11.883 2.846-17.538l.154-.462-6.453 7.626c-2.936 3.47-4.547 7.868-4.547 12.414 0 5.097 2.025 9.985 5.629 13.589l3.371 3.371" fill="#c7e2fc"/><path d="m5 56 .154-.462c1.885-5.655 2.846-11.577 2.846-17.538 0-5.961-.961-11.883-2.846-17.538l-.154-.462 6.453 7.626c2.936 3.47 4.547 7.868 4.547 12.414 0 5.097-2.025 9.985-5.629 13.589l-3.371 3.371" fill="#c7e2fc"/><path d="m39 21 1.067.8c1.904 1.428 4.22 2.2 6.6 2.2h.181c3.265 0 6.361-1.45 8.45-3.958l1.702-2.042 2 2-6.453 7.626c-2.936 3.47-4.547 7.868-4.547 12.414 0 5.097 2.025 9.985 5.629 13.589l3.371 3.371-1 2-4.809-2.061c-6.064-2.599-12.593-3.939-19.191-3.939-6.598 0-13.127 1.34-19.191 3.939l-4.809 2.061-1-2 3.371-3.371c3.604-3.604 5.629-8.492 5.629-13.589 0-4.545-1.611-8.944-4.547-12.414l-6.453-7.626 2-2 1.702 2.042c2.09 2.508 5.186 3.958 8.45 3.958h.181c2.38 0 4.696-.772 6.6-2.2l1.067-.8" fill="#8892a0"/><path d="m22.731 45c14.391 0 26.311-9.496 28.404-21.886-1.342.569-2.794.886-4.287.886h-.181c-2.38 0-4.696-.772-6.6-2.2l-1.067-.8h-14l-1.067.8c-1.904 1.428-4.22 2.2-6.6 2.2h-.181c-3.265 0-6.36-1.45-8.45-3.958l-1.702-2.042-2 2 6.453 7.626c2.936 3.47 4.547 7.868 4.547 12.414 0 1.406-.169 2.792-.467 4.144 2.3.532 4.712.816 7.198.816z" fill="#c1c8d1"/><path d="m42 35v-12.049c-.677-.318-1.328-.697-1.933-1.151l-1.067-.8h-14l-1.067.8c-.605.454-1.256.834-1.933 1.151v12.049c0 5.523 4.477 10 10 10s10-4.477 10-10z" fill="#ebf7fe"/><circle cx="32" cy="14" fill="#c1c8d1" r="10"/><path d="m32 4c-1.099 0-2.153.184-3.143.511l1.868 6.527c.163.57.683.962 1.275.962s1.112-.392 1.275-.962l1.859-6.53c-.987-.325-2.038-.508-3.134-.508z" fill="#8892a0"/><g fill="#4d5d7a"><circle cx="5" cy="17" r="3"/><circle cx="5" cy="59" r="3"/><circle cx="59" cy="17" r="3"/><circle cx="59" cy="59" r="3"/></g><circle cx="27" cy="14" fill="#8892a0" r="2"/><circle cx="37" cy="14" fill="#8892a0" r="2"/><ellipse cx="32" cy="21" fill="#8892a0" rx="4" ry="3"/><circle cx="28" cy="14" fill="#4d5d7a" r="1"/><circle cx="36" cy="14" fill="#4d5d7a" r="1"/><ellipse cx="32" cy="22.5" fill="#c1c8d1" rx="2" ry="1.5"/></g></svg>